<?xml version="1.0" encoding="UTF-8" standalone="no"?>
<!-- Created with Inkscape (http://www.inkscape.org/) -->

<svg
   xmlns:dc="http://purl.org/dc/elements/1.1/"
   xmlns:cc="http://creativecommons.org/ns#"
   xmlns:rdf="http://www.w3.org/1999/02/22-rdf-syntax-ns#"
   xmlns:svg="http://www.w3.org/2000/svg"
   xmlns="http://www.w3.org/2000/svg"
   xmlns:sodipodi="http://sodipodi.sourceforge.net/DTD/sodipodi-0.dtd"
   xmlns:inkscape="http://www.inkscape.org/namespaces/inkscape"
   width="1080"
   height="1920"
   viewBox="0 0 285.74999 508.00001"
   version="1.1"
   id="svg2593"
   inkscape:version="0.92.4 (5da689c313, 2019-01-14)"
   sodipodi:docname="approve_reject.svg">
  <defs
     id="defs2587" />
  <sodipodi:namedview
     id="base"
     pagecolor="#ffffff"
     bordercolor="#666666"
     borderopacity="1.0"
     inkscape:pageopacity="0.0"
     inkscape:pageshadow="2"
     inkscape:zoom="0.41"
     inkscape:cx="172.47292"
     inkscape:cy="956.74011"
     inkscape:document-units="mm"
     inkscape:current-layer="layer1"
     showgrid="false"
     units="px"
     inkscape:window-width="1920"
     inkscape:window-height="1001"
     inkscape:window-x="-9"
     inkscape:window-y="-9"
     inkscape:window-maximized="1" />
  <metadata
     id="metadata2590">
    <rdf:RDF>
      <cc:Work
         rdf:about="">
        <dc:format>image/svg+xml</dc:format>
        <dc:type
           rdf:resource="http://purl.org/dc/dcmitype/StillImage" />
        <dc:title />
      </cc:Work>
    </rdf:RDF>
  </metadata>
  <g
     inkscape:label="Layer 1"
     inkscape:groupmode="layer"
     id="layer1"
     transform="translate(0,211.00002)">
    <rect
       style="display:inline;fill:#f0f0f0;fill-opacity:1;stroke:#000000;stroke-width:0.5753175;stroke-linejoin:round;stroke-miterlimit:4;stroke-dasharray:none;stroke-opacity:1"
       id="rect1465"
       width="243.41997"
       height="293.70599"
       x="19.408329"
       y="-100.23219"
       ry="8.3124275" />
    <rect
       ry="8.3124275"
       y="-110.81554"
       x="19.408329"
       height="293.70599"
       width="243.41997"
       id="rect1461"
       style="display:inline;fill:#f0f0f0;fill-opacity:1;stroke:#000000;stroke-width:0.5753175;stroke-linejoin:round;stroke-miterlimit:4;stroke-dasharray:none;stroke-opacity:1" />
    <rect
       style="display:inline;fill:#f0f0f0;fill-opacity:1;stroke:#000000;stroke-width:0.5753175;stroke-linejoin:round;stroke-miterlimit:4;stroke-dasharray:none;stroke-opacity:1"
       id="rect1457"
       width="243.41997"
       height="293.70599"
       x="19.408329"
       y="-121.39885"
       ry="8.3124275" />
    <rect
       ry="8.3124275"
       y="-131.98219"
       x="19.408329"
       height="293.70599"
       width="243.41997"
       id="rect1342"
       style="display:inline;fill:#f0f0f0;fill-opacity:1;stroke:#000000;stroke-width:0.5753175;stroke-linejoin:round;stroke-miterlimit:4;stroke-dasharray:none;stroke-opacity:1" />
    <rect
       style="display:inline;fill:#f0f0f0;fill-opacity:1;stroke:#000000;stroke-width:0.5753175;stroke-linejoin:round;stroke-miterlimit:4;stroke-dasharray:none;stroke-opacity:1"
       id="rect1193"
       width="243.41997"
       height="293.70599"
       x="19.408329"
       y="-142.56551"
       ry="8.3124275" />
    <path
       style="display:inline;fill:none;stroke:#000000;stroke-width:0.79374999;stroke-linecap:butt;stroke-linejoin:miter;stroke-miterlimit:4;stroke-dasharray:none;stroke-opacity:1"
       d="M 27.347462,-65.466205 H 254.88913"
       id="path1279"
       inkscape:connector-curvature="0" />
    <path
       inkscape:connector-curvature="0"
       id="path1309"
       d="M 27.347462,-8.3161753 H 254.88913"
       style="display:inline;fill:none;stroke:#000000;stroke-width:0.79374999;stroke-linecap:butt;stroke-linejoin:miter;stroke-miterlimit:4;stroke-dasharray:none;stroke-opacity:1" />
    <rect
       style="display:inline;fill:#bebebe;fill-opacity:1;stroke:none;stroke-width:0.6247617;stroke-linejoin:round;stroke-miterlimit:4;stroke-dasharray:none;stroke-opacity:1"
       id="rect1211"
       width="121.70833"
       height="7.9375"
       x="106.72247"
       y="-135.31621" />
    <rect
       y="-120.14677"
       x="106.72247"
       height="7.9375"
       width="121.70833"
       id="rect1213"
       style="display:inline;fill:#bebebe;fill-opacity:1;stroke:none;stroke-width:0.6247617;stroke-linejoin:round;stroke-miterlimit:4;stroke-dasharray:none;stroke-opacity:1" />
    <rect
       style="display:inline;fill:#bebebe;fill-opacity:1;stroke:none;stroke-width:0.6247617;stroke-linejoin:round;stroke-miterlimit:4;stroke-dasharray:none;stroke-opacity:1"
       id="rect1215"
       width="121.70833"
       height="7.9375"
       x="106.72247"
       y="-104.97731" />
    <rect
       y="-89.807907"
       x="106.72247"
       height="7.9375"
       width="121.70833"
       id="rect1217"
       style="display:inline;fill:#bebebe;fill-opacity:1;stroke:none;stroke-width:0.6247617;stroke-linejoin:round;stroke-miterlimit:4;stroke-dasharray:none;stroke-opacity:1" />
    <text
       xml:space="preserve"
       style="font-style:normal;font-weight:normal;font-size:10.58333302px;line-height:1.25;font-family:sans-serif;letter-spacing:0px;word-spacing:0px;display:inline;fill:#000000;fill-opacity:1;stroke:none;stroke-width:0.26458332"
       x="108.15877"
       y="-129.53316"
       id="text1265"><tspan
         sodipodi:role="line"
         id="tspan1263"
         x="108.15877"
         y="-129.53316"
         style="font-size:6.70277786px;stroke-width:0.26458332">name</tspan></text>
    <text
       xml:space="preserve"
       style="font-style:normal;font-weight:normal;font-size:10.58333302px;line-height:1.25;font-family:sans-serif;letter-spacing:0px;word-spacing:0px;display:inline;fill:#000000;fill-opacity:1;stroke:none;stroke-width:0.26458332"
       x="108.57454"
       y="-114.22511"
       id="text1269"><tspan
         sodipodi:role="line"
         id="tspan1267"
         x="108.57454"
         y="-114.22511"
         style="font-size:6.70277786px;stroke-width:0.26458332">id</tspan></text>
    <text
       xml:space="preserve"
       style="font-style:normal;font-weight:normal;font-size:10.58333302px;line-height:1.25;font-family:sans-serif;letter-spacing:0px;word-spacing:0px;display:inline;fill:#000000;fill-opacity:1;stroke:none;stroke-width:0.26458332"
       x="108.76353"
       y="-98.728104"
       id="text1273"><tspan
         sodipodi:role="line"
         x="108.76353"
         y="-98.728104"
         style="font-size:6.70277786px;stroke-width:0.26458332"
         id="tspan1316">leave  type</tspan></text>
    <text
       xml:space="preserve"
       style="font-style:normal;font-weight:normal;font-size:10.58333302px;line-height:1.25;font-family:sans-serif;letter-spacing:0px;word-spacing:0px;display:inline;fill:#000000;fill-opacity:1;stroke:none;stroke-width:0.26458332"
       x="52.955349"
       y="-52.25676"
       id="text1288"><tspan
         sodipodi:role="line"
         id="tspan1286"
         x="52.955349"
         y="-52.25676"
         style="font-size:5.29166651px;stroke-width:0.26458332">Depart:</tspan></text>
    <text
       xml:space="preserve"
       style="font-style:normal;font-weight:normal;font-size:10.58333302px;line-height:1.25;font-family:sans-serif;letter-spacing:0px;word-spacing:0px;display:inline;fill:#000000;fill-opacity:1;stroke:none;stroke-width:0.26458332"
       x="52.764149"
       y="-39.574814"
       id="text1299"><tspan
         sodipodi:role="line"
         id="tspan1297"
         x="52.764149"
         y="-39.574814"
         style="stroke-width:0.26458332">04 Aug 2019</tspan></text>
    <text
       id="text1340"
       y="-19.466476"
       x="112.54955"
       style="font-style:normal;font-weight:normal;font-size:10.58333302px;line-height:1.25;font-family:sans-serif;letter-spacing:0px;word-spacing:0px;display:inline;fill:#000000;fill-opacity:1;stroke:none;stroke-width:0.26458332"
       xml:space="preserve"><tspan
         style="font-style:normal;font-variant:normal;font-weight:bold;font-stretch:normal;font-size:12.34722233px;font-family:sans-serif;-inkscape-font-specification:'sans-serif Bold';stroke-width:0.26458332"
         y="-19.466476"
         x="112.54955"
         id="tspan1338"
         sodipodi:role="line">15 DAYS</tspan></text>
    <text
       id="text1292"
       y="-51.764542"
       x="156.9933"
       style="font-style:normal;font-weight:normal;font-size:10.58333302px;line-height:1.25;font-family:sans-serif;letter-spacing:0px;word-spacing:0px;display:inline;fill:#000000;fill-opacity:1;stroke:none;stroke-width:0.26458332"
       xml:space="preserve"><tspan
         style="font-size:5.29166651px;stroke-width:0.26458332"
         y="-51.764542"
         x="156.9933"
         id="tspan1290"
         sodipodi:role="line">Return:</tspan></text>
    <text
       id="text1303"
       y="-39.574814"
       x="156.07346"
       style="font-style:normal;font-weight:normal;font-size:10.58333302px;line-height:1.25;font-family:sans-serif;letter-spacing:0px;word-spacing:0px;display:inline;fill:#000000;fill-opacity:1;stroke:none;stroke-width:0.26458332"
       xml:space="preserve"><tspan
         style="stroke-width:0.26458332"
         y="-39.574814"
         x="156.07346"
         id="tspan1301"
         sodipodi:role="line">19 Aug 2019</tspan></text>
    <rect
       style="display:inline;fill:#bebebe;fill-opacity:1;stroke:none;stroke-width:0.79828048;stroke-linejoin:round;stroke-miterlimit:4;stroke-dasharray:none;stroke-opacity:1"
       id="rect1317"
       width="198.70207"
       height="7.9375"
       x="49.572475"
       y="7.2942042" />
    <rect
       y="21.351255"
       x="33.669987"
       height="7.9375"
       width="214.60493"
       id="rect1320"
       style="display:inline;fill:#bebebe;fill-opacity:1;stroke:none;stroke-width:0.82960957;stroke-linejoin:round;stroke-miterlimit:4;stroke-dasharray:none;stroke-opacity:1"
       transform="matrix(0.99999848,-0.00174356,0,1,0,0)" />
    <rect
       style="display:inline;fill:#9a9a9a;fill-opacity:1;stroke:none;stroke-width:0.79374999;stroke-linejoin:round;stroke-miterlimit:4;stroke-dasharray:none;stroke-opacity:1"
       id="rect5176"
       width="111.125"
       height="21.166666"
       x="27.347462"
       y="122.38797"
       ry="10.583333" />
    <text
       xml:space="preserve"
       style="font-style:normal;font-weight:normal;font-size:10.58333302px;line-height:1.25;font-family:sans-serif;letter-spacing:0px;word-spacing:0px;display:inline;fill:#000000;fill-opacity:1;stroke:none;stroke-width:0.26458332"
       x="58.324902"
       y="136.81862"
       id="text5180"><tspan
         sodipodi:role="line"
         id="tspan5178"
         x="58.324902"
         y="136.81862"
         style="stroke-width:0.26458332">APPROVE</tspan></text>
    <rect
       ry="10.583333"
       y="122.38797"
       x="143.76413"
       height="21.166666"
       width="111.125"
       id="rect5183"
       style="display:inline;fill:#9a9a9a;fill-opacity:1;stroke:none;stroke-width:0.79374999;stroke-linejoin:round;stroke-miterlimit:4;stroke-dasharray:none;stroke-opacity:1" />
    <text
       id="text5187"
       y="136.81862"
       x="179.0643"
       style="font-style:normal;font-weight:normal;font-size:10.58333302px;line-height:1.25;font-family:sans-serif;letter-spacing:0px;word-spacing:0px;display:inline;fill:#000000;fill-opacity:1;stroke:none;stroke-width:0.26458332"
       xml:space="preserve"><tspan
         style="stroke-width:0.26458332"
         y="136.81862"
         x="179.0643"
         id="tspan5185"
         sodipodi:role="line">REJECT</tspan></text>
    <rect
       style="display:inline;fill:#c7c7c7;fill-opacity:1;stroke:none;stroke-width:0.82480109;stroke-linejoin:round;stroke-miterlimit:4;stroke-dasharray:none;stroke-opacity:1"
       id="rect1234"
       width="285.6889"
       height="23.8125"
       x="-0.18191417"
       y="-181.97383"
       ry="0" />
    <path
       style="display:inline;fill:none;stroke:#fff7f7;stroke-width:0.52633303;stroke-linecap:butt;stroke-linejoin:miter;stroke-miterlimit:4;stroke-dasharray:none;stroke-opacity:1"
       d="m 71.21497,-181.70777 v 23.55814"
       id="path1248"
       inkscape:connector-curvature="0" />
    <path
       inkscape:connector-curvature="0"
       id="path1251"
       d="m 146.88584,-181.70777 v 23.55814"
       style="display:inline;fill:none;stroke:#fff7f7;stroke-width:0.52633303;stroke-linecap:butt;stroke-linejoin:miter;stroke-miterlimit:4;stroke-dasharray:none;stroke-opacity:1" />
    <path
       style="display:inline;fill:none;stroke:#fff7f7;stroke-width:0.52633303;stroke-linecap:butt;stroke-linejoin:miter;stroke-miterlimit:4;stroke-dasharray:none;stroke-opacity:1"
       d="m 146.88584,-181.70777 v 23.55814"
       id="path1254"
       inkscape:connector-curvature="0" />
    <path
       inkscape:connector-curvature="0"
       id="path1256"
       d="m 210.38588,-181.70777 v 23.55814"
       style="display:inline;fill:none;stroke:#fff7f7;stroke-width:0.52633303;stroke-linecap:butt;stroke-linejoin:miter;stroke-miterlimit:4;stroke-dasharray:none;stroke-opacity:1" />
    <text
       id="text4756"
       y="-166.33888"
       x="22.788166"
       style="font-style:normal;font-weight:normal;font-size:10.58333302px;line-height:1.25;font-family:sans-serif;letter-spacing:0px;word-spacing:0px;display:inline;fill:#000000;fill-opacity:1;stroke:none;stroke-width:0.26458332"
       xml:space="preserve"><tspan
         style="stroke-width:0.26458332"
         y="-166.33888"
         x="22.788166"
         id="tspan4754"
         sodipodi:role="line">HOME</tspan></text>
    <text
       id="text4762"
       y="-166.33888"
       x="85.479767"
       style="font-style:normal;font-weight:normal;font-size:10.58333302px;line-height:1.25;font-family:sans-serif;letter-spacing:0px;word-spacing:0px;display:inline;fill:#000000;fill-opacity:1;stroke:none;stroke-width:0.26458332"
       xml:space="preserve"><tspan
         style="stroke-width:0.26458332"
         y="-166.33888"
         x="85.479767"
         id="tspan4760"
         sodipodi:role="line">APPROVE</tspan></text>
    <text
       id="text4768"
       y="-166.33888"
       x="161.04713"
       style="font-style:normal;font-weight:normal;font-size:10.58333302px;line-height:1.25;font-family:sans-serif;letter-spacing:0px;word-spacing:0px;display:inline;fill:#000000;fill-opacity:1;stroke:none;stroke-width:0.26458332"
       xml:space="preserve"><tspan
         style="stroke-width:0.26458332"
         y="-166.33888"
         x="161.04713"
         id="tspan4766"
         sodipodi:role="line">LEAVE</tspan></text>
    <text
       id="text4774"
       y="-166.33888"
       x="221.04997"
       style="font-style:normal;font-weight:normal;font-size:10.58333302px;line-height:1.25;font-family:sans-serif;letter-spacing:0px;word-spacing:0px;display:inline;fill:#000000;fill-opacity:1;stroke:none;stroke-width:0.26458332"
       xml:space="preserve"><tspan
         style="stroke-width:0.26458332"
         y="-166.33888"
         x="221.04997"
         id="tspan4772"
         sodipodi:role="line">REPORT</tspan></text>
    <path
       style="display:inline;fill:none;stroke:#000000;stroke-width:0.52916676;stroke-linecap:butt;stroke-linejoin:miter;stroke-miterlimit:4;stroke-dasharray:none;stroke-opacity:1"
       d="M -0.22252955,-181.97405 H 285.52747"
       id="path3768"
       inkscape:connector-curvature="0"
       sodipodi:nodetypes="cc" />
    <g
       style="display:inline"
       transform="translate(-254.22262,-211.21028)"
       id="g6012">
      <rect
         id="rect6006"
         width="21.166666"
         height="5.2916665"
         x="259.29166"
         y="5.291667"
         style="stroke-width:0.26458332" />
      <rect
         id="rect6008"
         width="21.166666"
         height="5.2916665"
         x="259.29166"
         y="11.90625"
         style="stroke-width:0.26458332" />
      <rect
         id="rect6010"
         width="21.166666"
         height="5.2916665"
         x="259.29166"
         y="18.520834"
         style="stroke-width:0.26458332" />
    </g>
    <g
       transform="matrix(1.5893105,0,0,1.5893105,96.784995,30.302105)"
       id="g8"
       style="fill:#b3b3b3">
      <path
         inkscape:connector-curvature="0"
         d="M 57,6 H 1 C 0.448,6 0,6.447 0,7 v 44 c 0,0.553 0.448,1 1,1 h 56 c 0.552,0 1,-0.447 1,-1 V 7 C 58,6.447 57.552,6 57,6 Z M 56,50 H 2 V 8 h 54 z"
         id="path2"
         style="fill:#b3b3b3" />
      <path
         inkscape:connector-curvature="0"
         d="m 16,28.138 c 3.071,0 5.569,-2.498 5.569,-5.568 C 21.569,19.498 19.071,17 16,17 c -3.071,0 -5.569,2.498 -5.569,5.569 0,3.071 2.498,5.569 5.569,5.569 z M 16,19 c 1.968,0 3.569,1.602 3.569,3.569 0,1.967 -1.601,3.569 -3.569,3.569 -1.968,0 -3.569,-1.601 -3.569,-3.568 C 12.431,20.603 14.032,19 16,19 Z"
         id="path4"
         style="fill:#b3b3b3" />
      <path
         inkscape:connector-curvature="0"
         d="m 7,46 c 0.234,0 0.47,-0.082 0.66,-0.249 L 23.973,31.389 34.275,41.69 c 0.391,0.391 1.023,0.391 1.414,0 0.391,-0.391 0.391,-1.023 0,-1.414 l -4.807,-4.807 9.181,-10.054 11.261,10.323 c 0.407,0.373 1.04,0.345 1.413,-0.062 0.373,-0.407 0.346,-1.04 -0.062,-1.413 l -12,-11 c -0.196,-0.179 -0.457,-0.268 -0.72,-0.262 -0.265,0.012 -0.515,0.129 -0.694,0.325 L 29.467,34.053 24.724,29.31 C 24.35,28.937 23.752,28.918 23.356,29.266 L 6.339,44.249 C 5.924,44.614 5.884,45.246 6.249,45.661 6.447,45.886 6.723,46 7,46 Z"
         id="path6"
         style="fill:#b3b3b3" />
    </g>
    <g
       transform="matrix(1.5893105,0,0,1.5893105,81.587044,30.831272)"
       id="g10" />
    <g
       transform="matrix(1.5893105,0,0,1.5893105,81.587044,30.831272)"
       id="g12" />
    <g
       transform="matrix(1.5893105,0,0,1.5893105,81.587044,30.831272)"
       id="g14" />
    <g
       transform="matrix(1.5893105,0,0,1.5893105,81.587044,30.831272)"
       id="g16" />
    <g
       transform="matrix(1.5893105,0,0,1.5893105,81.587044,30.831272)"
       id="g18" />
    <g
       transform="matrix(1.5893105,0,0,1.5893105,81.587044,30.831272)"
       id="g20" />
    <g
       transform="matrix(1.5893105,0,0,1.5893105,81.587044,30.831272)"
       id="g22" />
    <g
       transform="matrix(1.5893105,0,0,1.5893105,81.587044,30.831272)"
       id="g24" />
    <g
       transform="matrix(1.5893105,0,0,1.5893105,81.587044,30.831272)"
       id="g26" />
    <g
       transform="matrix(1.5893105,0,0,1.5893105,81.587044,30.831272)"
       id="g28" />
    <g
       transform="matrix(1.5893105,0,0,1.5893105,81.587044,30.831272)"
       id="g30" />
    <g
       transform="matrix(1.5893105,0,0,1.5893105,81.587044,30.831272)"
       id="g32" />
    <g
       transform="matrix(1.5893105,0,0,1.5893105,81.587044,30.831272)"
       id="g34" />
    <g
       transform="matrix(1.5893105,0,0,1.5893105,81.587044,30.831272)"
       id="g36" />
    <g
       transform="matrix(1.5893105,0,0,1.5893105,81.587044,30.831272)"
       id="g38" />
    <text
       xml:space="preserve"
       style="font-style:normal;font-weight:normal;font-size:8.8194437px;line-height:1.25;font-family:sans-serif;letter-spacing:0px;word-spacing:0px;fill:#000000;fill-opacity:1;stroke:none;stroke-width:0.26458332"
       x="104.1349"
       y="-192.63037"
       id="text889"><tspan
         sodipodi:role="line"
         id="tspan887"
         x="104.1349"
         y="-192.63037"
         style="stroke-width:0.26458332">APPROVE REJECT</tspan></text>
    <path
       style="stroke-width:0.10355387"
       inkscape:connector-curvature="0"
       d="m 85.752091,-108.02712 c 0,-14.65166 -11.856514,-26.50978 -26.509789,-26.50978 -14.651662,0 -26.509793,11.85651 -26.509793,26.50978 0,14.521812 11.757409,26.50979 26.509793,26.50979 14.691705,0 26.509789,-11.921238 26.509789,-26.50979 z m -26.509789,-23.40317 c 12.90459,0 23.403174,10.49859 23.403174,23.40317 0,4.72061 -1.404045,9.257951 -4.007861,13.101182 -10.455705,-11.246912 -28.315915,-11.267142 -38.790632,0 -2.603812,-3.843231 -4.007858,-8.380572 -4.007858,-13.101182 0,-12.90458 10.498583,-23.40317 23.403177,-23.40317 z m -17.457728,38.988027 c 9.296386,-10.427387 25.621491,-10.424957 34.915047,0 -9.327533,10.435479 -25.583469,10.438716 -34.915047,0 z m 0,0"
       id="path2-7" />
    <path
       style="stroke-width:0.10355387"
       inkscape:connector-curvature="0"
       d="m 59.242302,-106.47381 c 5.138858,0 9.319847,-4.18098 9.319847,-9.31984 v -3.10661 c 0,-5.13887 -4.180989,-9.31986 -9.319847,-9.31986 -5.138862,0 -9.319851,4.18099 -9.319851,9.31986 v 3.10661 c 0,5.13886 4.180989,9.31984 9.319851,9.31984 z m -6.213233,-12.42645 c 0,-3.42619 2.787054,-6.21324 6.213233,-6.21324 3.426175,0 6.213229,2.78705 6.213229,6.21324 v 3.10661 c 0,3.42617 -2.787054,6.21323 -6.213229,6.21323 -3.426179,0 -6.213233,-2.78706 -6.213233,-6.21323 z m 0,0"
       id="path4-8" />
    <rect
       style="fill:#000000;fill-opacity:0.24378112;fill-rule:nonzero;stroke:none;stroke-width:0.52916667;stroke-linejoin:round;stroke-miterlimit:4;stroke-dasharray:none;stroke-opacity:1"
       id="rect888"
       width="286.68787"
       height="455.16129"
       x="-0.18191417"
       y="-158.16133"
       ry="0" />
    <rect
       style="fill:#ffffff;fill-opacity:1;fill-rule:nonzero;stroke:none;stroke-width:0.52899998;stroke-linejoin:round;stroke-miterlimit:4;stroke-dasharray:none;stroke-opacity:1"
       id="rect890"
       width="253.24405"
       height="100.54166"
       x="16.252975"
       y="-7.2708483"
       ry="5.1008067" />
    <rect
       style="fill:#ffffff;fill-opacity:1;fill-rule:nonzero;stroke:#000000;stroke-width:0.5291667;stroke-linejoin:round;stroke-miterlimit:4;stroke-dasharray:none;stroke-opacity:1"
       id="rect892"
       width="234.34523"
       height="17.386906"
       x="25.702381"
       y="19.943422"
       ry="2.4549625" />
    <text
       xml:space="preserve"
       style="font-style:normal;font-weight:normal;font-size:8.8194437px;line-height:1.25;font-family:sans-serif;letter-spacing:0px;word-spacing:0px;fill:#000000;fill-opacity:1;stroke:none;stroke-width:0.26458332"
       x="25.702381"
       y="11.816941"
       id="text896"><tspan
         sodipodi:role="line"
         id="tspan894"
         x="25.702381"
         y="11.816941"
         style="stroke-width:0.26458332">REASONS:</tspan></text>
    <rect
       style="fill:#b3b3b3;fill-opacity:1;fill-rule:nonzero;stroke:none;stroke-width:0.5291667;stroke-linejoin:round;stroke-miterlimit:4;stroke-dasharray:none;stroke-opacity:1"
       id="rect898"
       width="98.087914"
       height="24.321527"
       x="93.831039"
       y="52.769341"
       ry="12.160764" />
    <text
       xml:space="preserve"
       style="font-style:normal;font-weight:normal;font-size:8.8194437px;line-height:1.25;font-family:sans-serif;letter-spacing:0px;word-spacing:0px;fill:#000000;fill-opacity:1;stroke:none;stroke-width:0.26458332"
       x="125.98973"
       y="68.270981"
       id="text902"><tspan
         sodipodi:role="line"
         id="tspan900"
         x="125.98973"
         y="68.270981"
         style="stroke-width:0.26458332">REJECT</tspan></text>
  </g>
</svg>
