<?xml version="1.0" encoding="UTF-8" standalone="no"?>
<!-- Created with Inkscape (http://www.inkscape.org/) -->

<svg
   xmlns:dc="http://purl.org/dc/elements/1.1/"
   xmlns:cc="http://creativecommons.org/ns#"
   xmlns:rdf="http://www.w3.org/1999/02/22-rdf-syntax-ns#"
   xmlns:svg="http://www.w3.org/2000/svg"
   xmlns="http://www.w3.org/2000/svg"
   xmlns:sodipodi="http://sodipodi.sourceforge.net/DTD/sodipodi-0.dtd"
   xmlns:inkscape="http://www.inkscape.org/namespaces/inkscape"
   width="1080"
   height="1920"
   viewBox="0 0 285.74999 508.00001"
   version="1.1"
   id="svg2593"
   inkscape:version="0.92.4 (5da689c313, 2019-01-14)"
   sodipodi:docname="history_modal.svg">
  <defs
     id="defs2587">
    <filter
       inkscape:collect="always"
       style="color-interpolation-filters:sRGB"
       id="filter1211"
       x="-0.016267644"
       width="1.0325353"
       y="-0.0095061596"
       height="1.0190123">
      <feGaussianBlur
         inkscape:collect="always"
         stdDeviation="1.6492032"
         id="feGaussianBlur1213" />
    </filter>
  </defs>
  <sodipodi:namedview
     id="base"
     pagecolor="#ffffff"
     bordercolor="#666666"
     borderopacity="1.0"
     inkscape:pageopacity="0.0"
     inkscape:pageshadow="2"
     inkscape:zoom="0.57982756"
     inkscape:cx="712.50557"
     inkscape:cy="1003.401"
     inkscape:document-units="mm"
     inkscape:current-layer="layer1"
     showgrid="false"
     units="px"
     inkscape:window-width="1920"
     inkscape:window-height="1001"
     inkscape:window-x="-9"
     inkscape:window-y="-9"
     inkscape:window-maximized="1" />
  <metadata
     id="metadata2590">
    <rdf:RDF>
      <cc:Work
         rdf:about="">
        <dc:format>image/svg+xml</dc:format>
        <dc:type
           rdf:resource="http://purl.org/dc/dcmitype/StillImage" />
        <dc:title />
      </cc:Work>
    </rdf:RDF>
  </metadata>
  <g
     inkscape:label="Layer 1"
     inkscape:groupmode="layer"
     id="layer1"
     transform="translate(0,211.00002)">
    <rect
       style="fill:#e3e3e3;fill-opacity:1;fill-rule:nonzero;stroke:none;stroke-width:0.26458332;stroke-linejoin:round;stroke-miterlimit:4;stroke-dasharray:none;stroke-opacity:1"
       id="rect1035"
       width="286.7063"
       height="458.38794"
       x="-0.18191417"
       y="-158.16133" />
    <rect
       ry="11.784074"
       y="-135.26093"
       x="21.579762"
       height="416.37085"
       width="243.31044"
       id="rect1037"
       style="display:inline;fill:#c4c4c4;fill-opacity:1;stroke:none;stroke-width:0.68484712;stroke-linejoin:round;stroke-miterlimit:4;stroke-dasharray:none;stroke-opacity:1;filter:url(#filter1211)"
       transform="matrix(1,0,0,0.84120822,0,-21.814428)" />
    <rect
       style="display:inline;fill:#ffffff;fill-opacity:1;stroke:none;stroke-width:0.628124;stroke-linejoin:round;stroke-miterlimit:4;stroke-dasharray:none;stroke-opacity:1"
       id="rect1193"
       width="243.31044"
       height="350.25458"
       x="19.463093"
       y="-137.37756"
       ry="9.9128599" />
    <rect
       style="display:inline;fill:#c7c7c7;fill-opacity:1;stroke:none;stroke-width:0.82480109;stroke-linejoin:round;stroke-miterlimit:4;stroke-dasharray:none;stroke-opacity:1"
       id="rect1234"
       width="285.6889"
       height="23.8125"
       x="-0.18191417"
       y="-181.97383"
       ry="0" />
    <path
       style="display:inline;fill:none;stroke:#fff7f7;stroke-width:0.52633303;stroke-linecap:butt;stroke-linejoin:miter;stroke-miterlimit:4;stroke-dasharray:none;stroke-opacity:1"
       d="m 71.21497,-181.70777 v 23.55814"
       id="path1248"
       inkscape:connector-curvature="0" />
    <path
       inkscape:connector-curvature="0"
       id="path1251"
       d="m 146.88584,-181.70777 v 23.55814"
       style="display:inline;fill:none;stroke:#fff7f7;stroke-width:0.52633303;stroke-linecap:butt;stroke-linejoin:miter;stroke-miterlimit:4;stroke-dasharray:none;stroke-opacity:1" />
    <path
       style="display:inline;fill:none;stroke:#fff7f7;stroke-width:0.52633303;stroke-linecap:butt;stroke-linejoin:miter;stroke-miterlimit:4;stroke-dasharray:none;stroke-opacity:1"
       d="m 146.88584,-181.70777 v 23.55814"
       id="path1254"
       inkscape:connector-curvature="0" />
    <path
       inkscape:connector-curvature="0"
       id="path1256"
       d="m 210.38588,-181.70777 v 23.55814"
       style="display:inline;fill:none;stroke:#fff7f7;stroke-width:0.52633303;stroke-linecap:butt;stroke-linejoin:miter;stroke-miterlimit:4;stroke-dasharray:none;stroke-opacity:1" />
    <text
       id="text4756"
       y="-166.33888"
       x="22.788166"
       style="font-style:normal;font-weight:normal;font-size:10.58333302px;line-height:1.25;font-family:sans-serif;letter-spacing:0px;word-spacing:0px;display:inline;fill:#000000;fill-opacity:1;stroke:none;stroke-width:0.26458332"
       xml:space="preserve"><tspan
         style="stroke-width:0.26458332"
         y="-166.33888"
         x="22.788166"
         id="tspan4754"
         sodipodi:role="line">HOME</tspan></text>
    <text
       id="text4762"
       y="-166.33888"
       x="85.479767"
       style="font-style:normal;font-weight:normal;font-size:10.58333302px;line-height:1.25;font-family:sans-serif;letter-spacing:0px;word-spacing:0px;display:inline;fill:#000000;fill-opacity:1;stroke:none;stroke-width:0.26458332"
       xml:space="preserve"><tspan
         style="stroke-width:0.26458332"
         y="-166.33888"
         x="85.479767"
         id="tspan4760"
         sodipodi:role="line">APPROVE</tspan></text>
    <text
       id="text4768"
       y="-166.33888"
       x="161.04713"
       style="font-style:normal;font-weight:normal;font-size:10.58333302px;line-height:1.25;font-family:sans-serif;letter-spacing:0px;word-spacing:0px;display:inline;fill:#000000;fill-opacity:1;stroke:none;stroke-width:0.26458332"
       xml:space="preserve"><tspan
         style="stroke-width:0.26458332"
         y="-166.33888"
         x="161.04713"
         id="tspan4766"
         sodipodi:role="line">LEAVE</tspan></text>
    <text
       id="text4774"
       y="-166.33888"
       x="221.04997"
       style="font-style:normal;font-weight:normal;font-size:10.58333302px;line-height:1.25;font-family:sans-serif;letter-spacing:0px;word-spacing:0px;display:inline;fill:#000000;fill-opacity:1;stroke:none;stroke-width:0.26458332"
       xml:space="preserve"><tspan
         style="stroke-width:0.26458332"
         y="-166.33888"
         x="221.04997"
         id="tspan4772"
         sodipodi:role="line">REPORT</tspan></text>
    <path
       style="display:inline;fill:none;stroke:#000000;stroke-width:0.52916676;stroke-linecap:butt;stroke-linejoin:miter;stroke-miterlimit:4;stroke-dasharray:none;stroke-opacity:1"
       d="M -0.22252955,-181.97405 H 285.52747"
       id="path3768"
       inkscape:connector-curvature="0"
       sodipodi:nodetypes="cc" />
    <g
       style="display:inline"
       transform="translate(-254.22262,-211.21028)"
       id="g6012">
      <rect
         id="rect6006"
         width="21.166666"
         height="5.2916665"
         x="259.29166"
         y="5.291667"
         style="stroke-width:0.26458332" />
      <rect
         id="rect6008"
         width="21.166666"
         height="5.2916665"
         x="259.29166"
         y="11.90625"
         style="stroke-width:0.26458332" />
      <rect
         id="rect6010"
         width="21.166666"
         height="5.2916665"
         x="259.29166"
         y="18.520834"
         style="stroke-width:0.26458332" />
    </g>
    <g
       transform="matrix(1.5893105,0,0,1.5893105,81.587044,30.831272)"
       id="g10" />
    <g
       transform="matrix(1.5893105,0,0,1.5893105,81.587044,30.831272)"
       id="g12" />
    <g
       transform="matrix(1.5893105,0,0,1.5893105,81.587044,30.831272)"
       id="g14" />
    <g
       transform="matrix(1.5893105,0,0,1.5893105,81.587044,30.831272)"
       id="g16" />
    <g
       transform="matrix(1.5893105,0,0,1.5893105,81.587044,30.831272)"
       id="g18" />
    <g
       transform="matrix(1.5893105,0,0,1.5893105,81.587044,30.831272)"
       id="g20" />
    <g
       transform="matrix(1.5893105,0,0,1.5893105,81.587044,30.831272)"
       id="g22" />
    <g
       transform="matrix(1.5893105,0,0,1.5893105,81.587044,30.831272)"
       id="g24" />
    <g
       transform="matrix(1.5893105,0,0,1.5893105,81.587044,30.831272)"
       id="g26" />
    <g
       transform="matrix(1.5893105,0,0,1.5893105,81.587044,30.831272)"
       id="g28" />
    <g
       transform="matrix(1.5893105,0,0,1.5893105,81.587044,30.831272)"
       id="g30" />
    <g
       transform="matrix(1.5893105,0,0,1.5893105,81.587044,30.831272)"
       id="g32" />
    <g
       transform="matrix(1.5893105,0,0,1.5893105,81.587044,30.831272)"
       id="g34" />
    <g
       transform="matrix(1.5893105,0,0,1.5893105,81.587044,30.831272)"
       id="g36" />
    <g
       transform="matrix(1.5893105,0,0,1.5893105,81.587044,30.831272)"
       id="g38" />
    <text
       xml:space="preserve"
       style="font-style:normal;font-weight:normal;font-size:8.8194437px;line-height:1.25;font-family:sans-serif;letter-spacing:0px;word-spacing:0px;fill:#000000;fill-opacity:1;stroke:none;stroke-width:0.26458332"
       x="104.811"
       y="-192.63037"
       id="text889"><tspan
         sodipodi:role="line"
         id="tspan887"
         x="104.811"
         y="-192.63037"
         style="stroke-width:0.26458332">HISTORY MODAL</tspan></text>
    <path
       style="display:inline;fill:none;stroke:#000000;stroke-width:0.79374999;stroke-linecap:butt;stroke-linejoin:miter;stroke-miterlimit:4;stroke-dasharray:none;stroke-opacity:1"
       d="M 30.880653,-57.079435 H 258.42232"
       id="path1279"
       inkscape:connector-curvature="0" />
    <path
       inkscape:connector-curvature="0"
       id="path1309"
       d="M 29.822319,0.07059497 H 257.36398"
       style="display:inline;fill:none;stroke:#000000;stroke-width:0.79374999;stroke-linecap:butt;stroke-linejoin:miter;stroke-miterlimit:4;stroke-dasharray:none;stroke-opacity:1" />
    <rect
       style="display:inline;fill:#bebebe;fill-opacity:1;stroke:none;stroke-width:0.6247617;stroke-linejoin:round;stroke-miterlimit:4;stroke-dasharray:none;stroke-opacity:1"
       id="rect1211"
       width="121.70834"
       height="7.9375"
       x="110.25565"
       y="-126.92944" />
    <rect
       y="-111.76"
       x="110.25565"
       height="7.9375"
       width="121.70834"
       id="rect1213"
       style="display:inline;fill:#bebebe;fill-opacity:1;stroke:none;stroke-width:0.6247617;stroke-linejoin:round;stroke-miterlimit:4;stroke-dasharray:none;stroke-opacity:1" />
    <rect
       style="display:inline;fill:#bebebe;fill-opacity:1;stroke:none;stroke-width:0.6247617;stroke-linejoin:round;stroke-miterlimit:4;stroke-dasharray:none;stroke-opacity:1"
       id="rect1215"
       width="121.70834"
       height="7.9375"
       x="110.25565"
       y="-96.590538" />
    <rect
       y="-81.421135"
       x="110.25565"
       height="7.9375"
       width="121.70834"
       id="rect1217"
       style="display:inline;fill:#bebebe;fill-opacity:1;stroke:none;stroke-width:0.6247617;stroke-linejoin:round;stroke-miterlimit:4;stroke-dasharray:none;stroke-opacity:1" />
    <text
       xml:space="preserve"
       style="font-style:normal;font-weight:normal;font-size:10.58333302px;line-height:1.25;font-family:sans-serif;letter-spacing:0px;word-spacing:0px;display:inline;fill:#000000;fill-opacity:1;stroke:none;stroke-width:0.26458332"
       x="111.69196"
       y="-121.14639"
       id="text1265"><tspan
         sodipodi:role="line"
         id="tspan1263"
         x="111.69196"
         y="-121.14639"
         style="font-size:6.70277786px;stroke-width:0.26458332">name</tspan></text>
    <text
       xml:space="preserve"
       style="font-style:normal;font-weight:normal;font-size:10.58333302px;line-height:1.25;font-family:sans-serif;letter-spacing:0px;word-spacing:0px;display:inline;fill:#000000;fill-opacity:1;stroke:none;stroke-width:0.26458332"
       x="112.10772"
       y="-105.83834"
       id="text1269"><tspan
         sodipodi:role="line"
         id="tspan1267"
         x="112.10772"
         y="-105.83834"
         style="font-size:6.70277786px;stroke-width:0.26458332">id</tspan></text>
    <text
       xml:space="preserve"
       style="font-style:normal;font-weight:normal;font-size:10.58333302px;line-height:1.25;font-family:sans-serif;letter-spacing:0px;word-spacing:0px;display:inline;fill:#000000;fill-opacity:1;stroke:none;stroke-width:0.26458332"
       x="112.29671"
       y="-90.341331"
       id="text1273"><tspan
         sodipodi:role="line"
         x="112.29671"
         y="-90.341331"
         style="font-size:6.70277786px;stroke-width:0.26458332"
         id="tspan1316">leave  type</tspan></text>
    <text
       xml:space="preserve"
       style="font-style:normal;font-weight:normal;font-size:10.58333302px;line-height:1.25;font-family:sans-serif;letter-spacing:0px;word-spacing:0px;display:inline;fill:#000000;fill-opacity:1;stroke:none;stroke-width:0.26458332"
       x="56.488537"
       y="-43.869991"
       id="text1288"><tspan
         sodipodi:role="line"
         id="tspan1286"
         x="56.488537"
         y="-43.869991"
         style="font-size:5.29166651px;stroke-width:0.26458332">Depart:</tspan></text>
    <text
       xml:space="preserve"
       style="font-style:normal;font-weight:normal;font-size:10.58333302px;line-height:1.25;font-family:sans-serif;letter-spacing:0px;word-spacing:0px;display:inline;fill:#000000;fill-opacity:1;stroke:none;stroke-width:0.26458332"
       x="56.297337"
       y="-31.188044"
       id="text1299"><tspan
         sodipodi:role="line"
         id="tspan1297"
         x="56.297337"
         y="-31.188044"
         style="stroke-width:0.26458332">04 Aug 2019</tspan></text>
    <text
       id="text1340"
       y="-11.079706"
       x="116.08273"
       style="font-style:normal;font-weight:normal;font-size:10.58333302px;line-height:1.25;font-family:sans-serif;letter-spacing:0px;word-spacing:0px;display:inline;fill:#000000;fill-opacity:1;stroke:none;stroke-width:0.26458332"
       xml:space="preserve"><tspan
         style="font-style:normal;font-variant:normal;font-weight:bold;font-stretch:normal;font-size:12.34722233px;font-family:sans-serif;-inkscape-font-specification:'sans-serif Bold';stroke-width:0.26458332"
         y="-11.079706"
         x="116.08273"
         id="tspan1338"
         sodipodi:role="line">15 DAYS</tspan></text>
    <text
       id="text1292"
       y="-43.377773"
       x="160.52649"
       style="font-style:normal;font-weight:normal;font-size:10.58333302px;line-height:1.25;font-family:sans-serif;letter-spacing:0px;word-spacing:0px;display:inline;fill:#000000;fill-opacity:1;stroke:none;stroke-width:0.26458332"
       xml:space="preserve"><tspan
         style="font-size:5.29166651px;stroke-width:0.26458332"
         y="-43.377773"
         x="160.52649"
         id="tspan1290"
         sodipodi:role="line">Return:</tspan></text>
    <text
       id="text1303"
       y="-31.188044"
       x="159.60664"
       style="font-style:normal;font-weight:normal;font-size:10.58333302px;line-height:1.25;font-family:sans-serif;letter-spacing:0px;word-spacing:0px;display:inline;fill:#000000;fill-opacity:1;stroke:none;stroke-width:0.26458332"
       xml:space="preserve"><tspan
         style="stroke-width:0.26458332"
         y="-31.188044"
         x="159.60664"
         id="tspan1301"
         sodipodi:role="line">19 Aug 2019</tspan></text>
    <rect
       style="display:inline;fill:#bebebe;fill-opacity:1;stroke:none;stroke-width:0.79828048;stroke-linejoin:round;stroke-miterlimit:4;stroke-dasharray:none;stroke-opacity:1"
       id="rect1317"
       width="198.70207"
       height="7.9375"
       x="53.105663"
       y="15.680983" />
    <rect
       y="29.744194"
       x="37.203175"
       height="7.9375"
       width="214.60493"
       id="rect1320"
       style="display:inline;fill:#bebebe;fill-opacity:1;stroke:none;stroke-width:0.82960957;stroke-linejoin:round;stroke-miterlimit:4;stroke-dasharray:none;stroke-opacity:1"
       transform="matrix(0.99999848,-0.00174356,0,1,0,0)" />
    <g
       transform="matrix(3.8551447,0,0,3.4244857,30.502165,25.396256)"
       id="g8"
       style="fill:#b3b3b3">
      <path
         inkscape:connector-curvature="0"
         d="M 57,6 H 1 C 0.448,6 0,6.447 0,7 v 44 c 0,0.553 0.448,1 1,1 h 56 c 0.552,0 1,-0.447 1,-1 V 7 C 58,6.447 57.552,6 57,6 Z M 56,50 H 2 V 8 h 54 z"
         id="path2"
         style="fill:#b3b3b3" />
      <path
         inkscape:connector-curvature="0"
         d="m 16,28.138 c 3.071,0 5.569,-2.498 5.569,-5.568 C 21.569,19.498 19.071,17 16,17 c -3.071,0 -5.569,2.498 -5.569,5.569 0,3.071 2.498,5.569 5.569,5.569 z M 16,19 c 1.968,0 3.569,1.602 3.569,3.569 0,1.967 -1.601,3.569 -3.569,3.569 -1.968,0 -3.569,-1.601 -3.569,-3.568 C 12.431,20.603 14.032,19 16,19 Z"
         id="path4"
         style="fill:#b3b3b3" />
      <path
         inkscape:connector-curvature="0"
         d="m 7,46 c 0.234,0 0.47,-0.082 0.66,-0.249 L 23.973,31.389 34.275,41.69 c 0.391,0.391 1.023,0.391 1.414,0 0.391,-0.391 0.391,-1.023 0,-1.414 l -4.807,-4.807 9.181,-10.054 11.261,10.323 c 0.407,0.373 1.04,0.345 1.413,-0.062 0.373,-0.407 0.346,-1.04 -0.062,-1.413 l -12,-11 c -0.196,-0.179 -0.457,-0.268 -0.72,-0.262 -0.265,0.012 -0.515,0.129 -0.694,0.325 L 29.467,34.053 24.724,29.31 C 24.35,28.937 23.752,28.918 23.356,29.266 L 6.339,44.249 C 5.924,44.614 5.884,45.246 6.249,45.661 6.447,45.886 6.723,46 7,46 Z"
         id="path6"
         style="fill:#b3b3b3" />
    </g>
    <path
       style="stroke-width:0.10355387"
       inkscape:connector-curvature="0"
       d="m 89.285279,-99.640345 c 0,-14.651665 -11.856513,-26.509785 -26.509789,-26.509785 -14.651663,0 -26.509797,11.85651 -26.509797,26.509785 0,14.52181 11.757412,26.50979 26.509797,26.50979 14.691704,0 26.509789,-11.92124 26.509789,-26.50979 z M 62.77549,-123.04352 c 12.904589,0 23.403174,10.49859 23.403174,23.403175 0,4.72061 -1.404046,9.25795 -4.007861,13.10118 -10.455706,-11.24691 -28.315916,-11.26714 -38.790633,0 -2.603817,-3.84323 -4.007857,-8.38057 -4.007857,-13.10118 0,-12.904585 10.498582,-23.403175 23.403177,-23.403175 z m -17.457729,38.988035 c 9.296386,-10.42739 25.621493,-10.42496 34.915048,0 -9.327533,10.43547 -25.58347,10.43871 -34.915048,0 z m 0,0"
       id="path2-7" />
    <path
       style="stroke-width:0.10355387"
       inkscape:connector-curvature="0"
       d="m 62.77549,-98.087035 c 5.138856,0 9.319847,-4.180985 9.319847,-9.319845 v -3.10661 c 0,-5.13887 -4.180991,-9.31986 -9.319847,-9.31986 -5.138862,0 -9.319852,4.18099 -9.319852,9.31986 v 3.10661 c 0,5.13886 4.18099,9.319845 9.319852,9.319845 z m -6.213234,-12.426455 c 0,-3.42619 2.787054,-6.21324 6.213234,-6.21324 3.426174,0 6.213229,2.78705 6.213229,6.21324 v 3.10661 c 0,3.42617 -2.787055,6.21323 -6.213229,6.21323 -3.42618,0 -6.213234,-2.78706 -6.213234,-6.21323 z m 0,0"
       id="path4-8" />
  </g>
</svg>
