<?xml version="1.0" encoding="UTF-8" standalone="no"?>
<!-- Created with Inkscape (http://www.inkscape.org/) -->

<svg
   xmlns:dc="http://purl.org/dc/elements/1.1/"
   xmlns:cc="http://creativecommons.org/ns#"
   xmlns:rdf="http://www.w3.org/1999/02/22-rdf-syntax-ns#"
   xmlns:svg="http://www.w3.org/2000/svg"
   xmlns="http://www.w3.org/2000/svg"
   xmlns:sodipodi="http://sodipodi.sourceforge.net/DTD/sodipodi-0.dtd"
   xmlns:inkscape="http://www.inkscape.org/namespaces/inkscape"
   width="1080"
   height="1920"
   viewBox="0 0 285.75001 508"
   version="1.1"
   id="svg3279"
   inkscape:version="0.92.4 (5da689c313, 2019-01-14)"
   sodipodi:docname="report_home.svg">
  <defs
     id="defs3273" />
  <sodipodi:namedview
     id="base"
     pagecolor="#ffffff"
     bordercolor="#666666"
     borderopacity="1.0"
     inkscape:pageopacity="0.0"
     inkscape:pageshadow="2"
     inkscape:zoom="0.7"
     inkscape:cx="383.47248"
     inkscape:cy="1272.2609"
     inkscape:document-units="mm"
     inkscape:current-layer="layer2"
     showgrid="false"
     units="px"
     inkscape:window-width="1920"
     inkscape:window-height="1001"
     inkscape:window-x="-9"
     inkscape:window-y="-9"
     inkscape:window-maximized="1" />
  <metadata
     id="metadata3276">
    <rdf:RDF>
      <cc:Work
         rdf:about="">
        <dc:format>image/svg+xml</dc:format>
        <dc:type
           rdf:resource="http://purl.org/dc/dcmitype/StillImage" />
        <dc:title />
      </cc:Work>
    </rdf:RDF>
  </metadata>
  <g
     inkscape:groupmode="layer"
     id="layer2"
     inkscape:label="report"
     style="display:inline">
    <rect
       style="display:inline;fill:#c7c7c7;fill-opacity:1;fill-rule:nonzero;stroke:none;stroke-width:1.43759084;stroke-linejoin:round;stroke-miterlimit:4;stroke-dasharray:none;stroke-opacity:1"
       id="rect1294"
       width="264.22861"
       height="46.954815"
       x="11.649834"
       y="58.752747"
       ry="0" />
    <text
       xml:space="preserve"
       style="font-style:normal;font-weight:normal;font-size:10.58333302px;line-height:1.25;font-family:sans-serif;letter-spacing:0px;word-spacing:0px;display:inline;fill:#000000;fill-opacity:1;stroke:none;stroke-width:0.26458332"
       x="82.207169"
       y="86.077461"
       id="text1300"><tspan
         sodipodi:role="line"
         id="tspan1298"
         x="82.207169"
         y="86.077461"
         style="stroke-width:0.26458332">SELECT FILTER DETAIL</tspan></text>
    <text
       xml:space="preserve"
       style="font-style:normal;font-weight:normal;font-size:7.05555534px;line-height:1.25;font-family:sans-serif;letter-spacing:0px;word-spacing:0px;fill:#000000;fill-opacity:1;stroke:none;stroke-width:0.26458332"
       x="115.19317"
       y="284.02814"
       id="text992"><tspan
         sodipodi:role="line"
         id="tspan990"
         x="115.19317"
         y="290.46515"
         style="stroke-width:0.26458332" /></text>
    <rect
       style="fill:#cccccc;fill-opacity:1;fill-rule:nonzero;stroke:none;stroke-width:0.84265852;stroke-linejoin:round;stroke-miterlimit:4;stroke-dasharray:none;stroke-opacity:1"
       id="rect951"
       width="263.79501"
       height="125.00671"
       x="11.22532"
       y="146.83408"
       ry="6.3256407" />
    <text
       xml:space="preserve"
       style="font-style:normal;font-weight:normal;font-size:8.81944466px;line-height:1.25;font-family:sans-serif;letter-spacing:0px;word-spacing:0px;fill:#000000;fill-opacity:1;stroke:none;stroke-width:0.26458332"
       x="72.393517"
       y="140.47792"
       id="text955"><tspan
         sodipodi:role="line"
         id="tspan953"
         x="72.393517"
         y="140.47792"
         style="font-style:normal;font-variant:normal;font-weight:bold;font-stretch:normal;font-size:10.58333302px;font-family:sans-serif;-inkscape-font-specification:'sans-serif Bold';stroke-width:0.26458332">Mon 6 - Fri 10 Jan 2020</tspan></text>
    <path
       style="fill:#ffffff;stroke:#fcfcfc;stroke-width:1.01006258;stroke-linecap:butt;stroke-linejoin:miter;stroke-miterlimit:4;stroke-dasharray:none;stroke-opacity:1"
       d="M 142.875,153.39119 V 267.46746"
       id="path959"
       inkscape:connector-curvature="0" />
    <text
       xml:space="preserve"
       style="font-style:normal;font-weight:normal;font-size:8.8194437px;line-height:1.25;font-family:sans-serif;letter-spacing:0px;word-spacing:0px;fill:#000000;fill-opacity:1;stroke:none;stroke-width:0.26458332"
       x="21.720009"
       y="189.99042"
       id="text969"><tspan
         sodipodi:role="line"
         id="tspan967"
         x="21.720009"
         y="189.99042"
         style="font-size:21.16666603px;stroke-width:0.26458332">x,xxx</tspan></text>
    <g
       transform="matrix(0.26458333,0,0,0.26458333,247.87705,146.95741)"
       id="g62" />
    <g
       transform="matrix(0.26458333,0,0,0.26458333,247.87705,146.95741)"
       id="g64" />
    <g
       transform="matrix(0.26458333,0,0,0.26458333,247.87705,146.95741)"
       id="g66" />
    <g
       transform="matrix(0.26458333,0,0,0.26458333,247.87705,146.95741)"
       id="g68" />
    <g
       transform="matrix(0.26458333,0,0,0.26458333,247.87705,146.95741)"
       id="g70" />
    <g
       transform="matrix(0.26458333,0,0,0.26458333,247.87705,146.95741)"
       id="g72" />
    <g
       transform="matrix(0.26458333,0,0,0.26458333,247.87705,146.95741)"
       id="g74" />
    <g
       transform="matrix(0.26458333,0,0,0.26458333,247.87705,146.95741)"
       id="g76" />
    <g
       transform="matrix(0.26458333,0,0,0.26458333,247.87705,146.95741)"
       id="g78" />
    <g
       transform="matrix(0.26458333,0,0,0.26458333,247.87705,146.95741)"
       id="g80" />
    <g
       transform="matrix(0.26458333,0,0,0.26458333,247.87705,146.95741)"
       id="g82" />
    <g
       transform="matrix(0.26458333,0,0,0.26458333,247.87705,146.95741)"
       id="g84" />
    <g
       transform="matrix(0.26458333,0,0,0.26458333,247.87705,146.95741)"
       id="g86" />
    <g
       transform="matrix(0.26458333,0,0,0.26458333,247.87705,146.95741)"
       id="g88" />
    <g
       transform="matrix(0.26458333,0,0,0.26458333,247.87705,146.95741)"
       id="g90" />
    <g
       style="fill:#808080;fill-opacity:1"
       transform="matrix(0.08641511,0,0,0.08641511,88.739046,163.37002)"
       id="g1180">
      <circle
         style="fill:#808080;fill-opacity:1"
         cx="433.17999"
         cy="424.17599"
         r="10"
         id="circle1166" />
      <path
         style="fill:#808080;fill-opacity:1"
         inkscape:connector-curvature="0"
         d="m 175.01,228.986 c 19.298,0 34.999,-15.702 34.999,-35.002 0,-19.3 -15.701,-35.002 -34.999,-35.002 -19.298,0 -34.999,15.702 -34.999,35.002 0,19.3 15.701,35.002 34.999,35.002 z m 0,-50.002 c 8.271,0 15,6.729 15,15.001 0,8.271 -6.729,15.001 -15,15.001 -8.271,0 -15,-6.729 -15,-15.001 0,-8.272 6.729,-15.001 15,-15.001 z"
         id="path1168" />
      <path
         style="fill:#808080;fill-opacity:1"
         inkscape:connector-curvature="0"
         d="m 314.006,193.984 c 0,19.3 15.701,35.002 34.999,35.002 19.298,0 34.999,-15.702 34.999,-35.002 0,-19.3 -15.701,-35.002 -34.999,-35.002 -19.298,0.001 -34.999,15.703 -34.999,35.002 z m 49.998,0 c 0,8.271 -6.728,15.001 -15,15.001 -8.272,0 -15,-6.729 -15,-15.001 0,-8.271 6.728,-15.001 15,-15.001 8.272,0 15,6.73 15,15.001 z"
         id="path1170" />
      <path
         style="fill:#808080;fill-opacity:1"
         inkscape:connector-curvature="0"
         d="m 192.185,105.94 c 1.118,-5.408 -2.359,-10.7 -7.768,-11.818 -5.409,-1.117 -10.699,2.36 -11.818,7.768 -1.328,6.421 -6.192,12.645 -13.696,17.523 -10.485,6.816 -24.61,9.855 -35.149,7.564 -5.398,-1.175 -10.723,2.25 -11.896,7.647 -1.174,5.397 2.25,10.724 7.646,11.897 3.8,0.826 7.789,1.229 11.872,1.229 12.998,0 26.914,-4.083 38.426,-11.567 12.016,-7.811 19.965,-18.551 22.383,-30.243 z"
         id="path1172" />
      <path
         style="fill:#808080;fill-opacity:1"
         inkscape:connector-curvature="0"
         d="m 400.261,126.977 c -10.535,2.291 -24.662,-0.748 -35.148,-7.563 -7.506,-4.879 -12.37,-11.102 -13.698,-17.524 -1.119,-5.409 -6.419,-8.883 -11.818,-7.768 -5.408,1.119 -8.885,6.41 -7.767,11.819 2.418,11.692 10.368,22.432 22.384,30.243 11.513,7.484 25.426,11.566 38.426,11.566 4.081,0 8.073,-0.402 11.872,-1.229 5.396,-1.173 8.82,-6.5 7.646,-11.897 -1.174,-5.398 -6.503,-8.823 -11.897,-7.647 z"
         id="path1174" />
      <circle
         style="fill:#808080;fill-opacity:1"
         cx="50.014"
         cy="250.987"
         r="10"
         id="circle1176" />
      <path
         style="fill:#808080;fill-opacity:1"
         inkscape:connector-curvature="0"
         d="M 435.107,75.572 C 388.898,31.231 326.016,6 262.008,6 195.836,6 130.947,33 84.36,80.047 48,116.764 23.937,164.577 15.447,215.275 c -3.412,3.264 -6.42,7.059 -8.873,11.367 -6.609,11.606 -8.304,25.091 -4.771,37.972 2.234,8.146 6.395,15.43 12.084,21.358 6.667,54.271 31.174,105.887 69.643,145.106 C 130.19,478.65 195.4,506 262.007,506 c 25.949,0 51.508,-3.96 76.007,-11.771 23.699,-7.56 46.109,-18.611 66.588,-32.862 2.19,-1.52 3.66,-3.81 4.13,-6.44 0.471,-2.63 -0.109,-5.29 -1.64,-7.48 -1.86,-2.69 -4.94,-4.29 -8.21,-4.29 -2.05,0 -4.021,0.62 -5.7,1.79 -38.619,26.851 -83.967,41.052 -131.176,41.052 -61.419,0 -119.177,-23.931 -162.635,-67.373 -33.009,-33.027 -54.728,-74.328 -63.259,-119.213 6.518,1.887 13.377,2.438 20.17,1.577 l 105.495,60.086 c -7.96,9.357 -14.383,19.816 -19.019,31.126 -2.095,5.111 0.349,10.952 5.459,13.047 1.242,0.509 2.526,0.75 3.79,0.75 3.937,0 7.67,-2.341 9.256,-6.209 15.643,-38.159 56.129,-63.797 100.745,-63.797 44.616,0 85.102,25.638 100.744,63.797 2.097,5.11 7.933,7.557 13.046,5.459 5.11,-2.095 7.555,-7.936 5.46,-13.047 -9.122,-22.251 -25.11,-41.249 -46.236,-54.94 -21.471,-13.915 -46.718,-21.27 -73.013,-21.27 -5.416,0 -10.787,0.317 -16.089,0.939 L 95.872,231.469 C 91.581,221.574 84.197,213.311 74.764,207.938 63.228,201.367 50.158,199.92 38.178,202.846 47.859,161.725 68.759,123.978 99.372,93.349 142.831,49.907 200.589,25.976 262.007,25.976 c 61.418,0 119.176,23.931 162.625,67.373 43.438,43.452 67.358,101.216 67.368,162.638 0,45.742 -13.4,89.924 -38.729,127.786 -1.489,2.22 -2.019,4.88 -1.5,7.5 0.521,2.62 2.03,4.88 4.25,6.37 1.65,1.11 3.57,1.69 5.55,1.69 3.351,0 6.461,-1.66 8.32,-4.44 C 497.44,353.752 512,305.71 512,255.988 512,188.448 483.858,122.351 435.107,75.572 Z M 64.867,225.318 c 6.347,3.615 11.148,9.415 13.518,16.33 0.789,2.304 2.393,4.241 4.51,5.447 l 8.304,4.73 -4.949,8.69 c -2.733,4.799 -1.059,10.906 3.74,13.639 1.562,0.89 3.262,1.313 4.939,1.313 3.476,0 6.855,-1.816 8.698,-5.053 l 4.949,-8.69 17.379,9.898 -4.949,8.69 c -2.733,4.799 -1.058,10.906 3.741,13.639 1.562,0.89 3.262,1.313 4.939,1.313 3.476,0 6.855,-1.816 8.698,-5.053 l 4.949,-8.69 17.379,9.898 -4.949,8.69 c -2.733,4.799 -1.058,10.906 3.741,13.639 1.562,0.89 3.262,1.313 4.939,1.313 3.477,0 6.855,-1.816 8.698,-5.053 l 4.949,-8.69 38.97,22.196 c -14.884,5.168 -28.574,12.901 -40.538,22.945 L 63.101,281.856 c -1.518,-0.865 -3.224,-1.311 -4.949,-1.311 -0.68,0 -1.363,0.069 -2.037,0.209 -7.157,1.489 -14.594,0.318 -20.941,-3.296 -6.963,-3.966 -11.965,-10.406 -14.084,-18.135 -2.12,-7.728 -1.103,-15.819 2.863,-22.783 8.186,-14.373 26.54,-19.408 40.914,-11.222 z"
         id="path1178" />
    </g>
    <g
       style="fill:#808080;fill-opacity:1"
       id="g1242"
       transform="matrix(0.3228288,0,0,0.3228288,140.04674,116.10512)">
      <g
         style="fill:#808080;fill-opacity:1"
         id="g1186"
         transform="matrix(0.26458333,0,0,0.26458333,247.87705,146.95741)">
        <g
           style="fill:#808080;fill-opacity:1"
           id="g1184">
          <path
             style="fill:#808080;fill-opacity:1"
             id="path1182"
             d="m 85.636,67.25 c -26.754,0 -48.522,21.767 -48.522,48.522 0,26.756 21.767,48.522 48.522,48.522 26.756,0 48.523,-21.767 48.523,-48.522 0,-26.755 -21.767,-48.522 -48.523,-48.522 z m 0.001,81.993 c -18.456,0 -33.472,-15.014 -33.472,-33.471 0,-18.457 15.015,-33.471 33.472,-33.471 18.457,0 33.472,15.015 33.472,33.471 0,18.456 -15.016,33.471 -33.472,33.471 z"
             inkscape:connector-curvature="0" />
        </g>
      </g>
      <g
         style="fill:#808080;fill-opacity:1"
         id="g1192"
         transform="matrix(0.26458333,0,0,0.26458333,247.87705,146.95741)">
        <g
           style="fill:#808080;fill-opacity:1"
           id="g1190">
          <path
             style="fill:#808080;fill-opacity:1"
             id="path1188"
             d="m 85.637,30.135 c -4.157,0 -7.525,3.369 -7.525,7.525 v 15.138 c 0,4.156 3.368,7.525 7.525,7.525 4.157,0 7.525,-3.369 7.525,-7.525 V 37.66 c 0,-4.156 -3.368,-7.525 -7.525,-7.525 z"
             inkscape:connector-curvature="0" />
        </g>
      </g>
      <g
         style="fill:#808080;fill-opacity:1"
         id="g1198"
         transform="matrix(0.26458333,0,0,0.26458333,247.87705,146.95741)">
        <g
           style="fill:#808080;fill-opacity:1"
           id="g1196">
          <path
             style="fill:#808080;fill-opacity:1"
             id="path1194"
             d="m 146.193,55.217 c -2.94,-2.938 -7.704,-2.939 -10.644,0 l -10.704,10.704 c -2.939,2.939 -2.939,7.704 0,10.642 1.47,1.47 3.395,2.204 5.322,2.204 1.925,0 3.852,-0.734 5.322,-2.203 L 146.193,65.86 c 2.939,-2.939 2.939,-7.704 0,-10.643 z"
             inkscape:connector-curvature="0" />
        </g>
      </g>
      <g
         style="fill:#808080;fill-opacity:1"
         id="g1204"
         transform="matrix(0.26458333,0,0,0.26458333,247.87705,146.95741)">
        <g
           style="fill:#808080;fill-opacity:1"
           id="g1202">
          <path
             style="fill:#808080;fill-opacity:1"
             id="path1200"
             d="m 163.749,108.247 h -15.137 c -4.157,0 -7.525,3.369 -7.525,7.525 0,4.156 3.368,7.525 7.525,7.525 h 15.137 c 4.157,0 7.525,-3.369 7.525,-7.525 0,-4.156 -3.368,-7.525 -7.525,-7.525 z"
             inkscape:connector-curvature="0" />
        </g>
      </g>
      <g
         style="fill:#808080;fill-opacity:1"
         id="g1210"
         transform="matrix(0.26458333,0,0,0.26458333,247.87705,146.95741)">
        <g
           style="fill:#808080;fill-opacity:1"
           id="g1208">
          <path
             style="fill:#808080;fill-opacity:1"
             id="path1206"
             d="m 146.193,165.684 -10.704,-10.703 c -2.941,-2.939 -7.705,-2.939 -10.644,0 -2.939,2.939 -2.939,7.704 0,10.642 l 10.704,10.704 c 1.47,1.469 3.396,2.204 5.322,2.204 1.926,0 3.852,-0.734 5.322,-2.204 2.939,-2.939 2.939,-7.704 0,-10.643 z"
             inkscape:connector-curvature="0" />
        </g>
      </g>
      <g
         style="fill:#808080;fill-opacity:1"
         id="g1216"
         transform="matrix(0.26458333,0,0,0.26458333,247.87705,146.95741)">
        <g
           style="fill:#808080;fill-opacity:1"
           id="g1214">
          <path
             style="fill:#808080;fill-opacity:1"
             id="path1212"
             d="m 85.637,171.222 c -4.157,0 -7.525,3.369 -7.525,7.525 v 15.138 c 0,4.156 3.368,7.525 7.525,7.525 4.157,0 7.525,-3.369 7.525,-7.525 v -15.138 c 0,-4.156 -3.368,-7.525 -7.525,-7.525 z"
             inkscape:connector-curvature="0" />
        </g>
      </g>
      <g
         style="fill:#808080;fill-opacity:1"
         id="g1222"
         transform="matrix(0.26458333,0,0,0.26458333,247.87705,146.95741)">
        <g
           style="fill:#808080;fill-opacity:1"
           id="g1220">
          <path
             style="fill:#808080;fill-opacity:1"
             id="path1218"
             d="m 46.43,154.981 c -2.939,-2.939 -7.703,-2.939 -10.643,0 l -10.704,10.703 c -2.94,2.939 -2.94,7.704 -10e-4,10.643 1.47,1.469 3.395,2.204 5.322,2.204 1.925,0 3.852,-0.734 5.322,-2.204 L 46.43,165.623 c 2.938,-2.939 2.938,-7.704 0,-10.642 z"
             inkscape:connector-curvature="0" />
        </g>
      </g>
      <g
         style="fill:#808080;fill-opacity:1"
         id="g1228"
         transform="matrix(0.26458333,0,0,0.26458333,247.87705,146.95741)">
        <g
           style="fill:#808080;fill-opacity:1"
           id="g1226">
          <path
             style="fill:#808080;fill-opacity:1"
             id="path1224"
             d="M 22.662,108.247 H 7.525 c -4.157,0 -7.525,3.369 -7.525,7.525 0,4.156 3.368,7.525 7.525,7.525 h 15.137 c 4.157,0 7.525,-3.369 7.525,-7.525 0,-4.156 -3.368,-7.525 -7.525,-7.525 z"
             inkscape:connector-curvature="0" />
        </g>
      </g>
      <g
         style="fill:#808080;fill-opacity:1"
         id="g1234"
         transform="matrix(0.26458333,0,0,0.26458333,247.87705,146.95741)">
        <g
           style="fill:#808080;fill-opacity:1"
           id="g1232">
          <path
             style="fill:#808080;fill-opacity:1"
             id="path1230"
             d="M 46.43,65.921 35.725,55.217 c -2.94,-2.939 -7.704,-2.939 -10.643,0 -2.939,2.939 -2.939,7.704 0,10.643 l 10.704,10.704 c 1.47,1.469 3.396,2.203 5.322,2.203 1.925,0 3.852,-0.734 5.322,-2.204 2.938,-2.939 2.938,-7.704 0,-10.642 z"
             inkscape:connector-curvature="0" />
        </g>
      </g>
      <g
         style="fill:#808080;fill-opacity:1"
         id="g1240"
         transform="matrix(0.26458333,0,0,0.26458333,247.87705,146.95741)">
        <g
           style="fill:#808080;fill-opacity:1"
           id="g1238">
          <path
             style="fill:#808080;fill-opacity:1"
             id="path1236"
             d="m 508.356,457.18 c -13.116,-8.896 -28.324,-12.925 -43.34,-12.113 -13.861,-19.093 -40.008,-35.461 -76.032,-47.525 -22.361,-7.488 -47.316,-12.893 -73.849,-16.102 L 369.05,246.169 c 8.135,5.875 15.235,12.853 21.038,20.747 1.918,2.61 4.877,4.087 8.141,3.292 17.807,-3.229 36.69,-1.16 54.628,5.989 18.073,7.203 33.291,18.807 44.008,33.557 1.437,1.977 3.714,3.101 6.087,3.101 0.602,0 1.21,-0.072 1.812,-0.222 2.974,-0.737 5.204,-3.205 5.638,-6.238 0.284,-1.991 6.799,-49.36 -8.723,-100.965 -1.196,-3.98 -5.402,-6.235 -9.373,-5.039 -3.98,1.197 -6.236,5.394 -5.038,9.373 9.06,30.124 10.049,59.251 9.493,77.019 -10.74,-10.394 -23.739,-18.752 -38.332,-24.568 -16.59,-6.612 -33.947,-9.423 -50.843,-8.3 0.128,-0.389 0.244,-0.769 0.37,-1.156 5.88,-17.964 10.265,-36.477 12.422,-55.27 1.973,-17.197 2.157,-34.568 -0.008,-51.756 -1.254,-9.954 -3.388,-19.799 -6.45,-29.355 -0.022,-0.069 -0.044,-0.143 -0.067,-0.212 27.002,14.629 47.758,36.185 61.846,64.284 1.862,3.715 6.384,5.216 10.099,3.354 3.715,-1.862 5.216,-6.384 3.354,-10.1 -18.674,-37.246 -47.974,-64.037 -87.111,-79.638 -53.828,-21.451 -109.852,-14.395 -162.006,20.406 -38.932,25.977 -61.729,57.839 -62.681,59.182 -1.771,2.5 -1.848,5.824 -0.197,8.404 1.651,2.58 4.697,3.903 7.714,3.342 17.927,-3.333 36.955,-1.288 55.027,5.915 17.81,7.099 32.849,18.471 43.541,32.917 2.08,2.81 5.114,4.538 8.675,3.48 9.557,-1.694 19.418,-1.862 29.274,-0.544 l -60.123,150.855 c -1.517,-0.013 -3.029,-0.04 -4.551,-0.04 -34.684,0 -67.831,3.455 -98.52,10.269 -4.057,0.901 -6.616,4.92 -5.714,8.978 0.901,4.057 4.913,6.617 8.977,5.715 29.202,-6.484 62.142,-9.911 95.257,-9.911 15.696,0 31.402,0.746 47.022,2.298 0.056,0.005 0.111,0.004 0.168,0.008 29.047,2.88 56.27,8.423 80.299,16.471 28.686,9.607 50.833,22.267 63.831,36.298 -6.558,2.037 -12.901,5.057 -18.818,9.069 -18.905,12.821 -43.336,12.821 -62.242,0 -24.039,-16.303 -55.103,-16.302 -79.139,0 -18.905,12.821 -43.336,12.821 -62.242,0 -24.038,-16.303 -55.102,-16.302 -79.139,0 -18.905,12.821 -43.336,12.821 -62.242,0 -5.916,-4.012 -12.259,-7.033 -18.817,-9.069 12.981,-14.011 35.088,-26.657 63.717,-36.259 3.94,-1.321 6.063,-5.587 4.742,-9.528 -1.321,-3.94 -5.585,-6.064 -9.527,-4.742 -35.961,12.06 -62.068,28.415 -75.913,47.485 -15.017,-0.812 -30.224,3.219 -43.34,12.113 -3.44,2.333 -4.337,7.012 -2.004,10.452 2.332,3.44 7.008,4.338 10.452,2.005 11.17,-7.575 24.27,-10.672 37.019,-9.295 0.458,0.099 0.92,0.162 1.384,0.173 8.348,1.116 16.51,4.151 23.841,9.123 24.036,16.301 55.099,16.303 79.138,0 18.907,-12.822 43.339,-12.821 62.243,0 24.037,16.301 55.1,16.303 79.138,0 18.906,-12.822 43.338,-12.821 62.243,0 12.019,8.151 25.794,12.227 39.57,12.227 13.775,0 27.55,-4.076 39.57,-12.227 7.314,-4.96 15.456,-7.993 23.785,-9.115 0.493,-0.009 0.984,-0.076 1.472,-0.184 12.739,-1.368 25.826,1.729 36.986,9.298 3.44,2.333 8.12,1.436 10.452,-2.005 2.329,-3.437 1.432,-8.117 -2.007,-10.45 z M 302.325,211.403 c 0.08,-0.17 0.163,-0.338 0.244,-0.508 7.01,-14.674 15.187,-28.858 24.726,-42.04 2.332,-3.222 1.664,-8.085 -1.684,-10.508 -3.275,-2.371 -8.144,-1.584 -10.509,1.685 -7.659,10.583 -14.464,21.784 -20.571,33.329 -2.206,4.172 -4.447,8.394 -6.339,12.721 -0.033,0.07 -0.068,0.14 -0.101,0.21 -11.496,-12.441 -26.025,-22.34 -42.62,-28.952 -14.597,-5.818 -29.789,-8.691 -44.735,-8.535 10.047,-11.299 26.551,-27.793 48.035,-42.063 21.302,-14.15 43.29,-23.387 65.35,-27.454 21.343,-3.934 42.879,-3.011 64.249,2.73 -0.086,0.047 -0.178,0.099 -0.264,0.146 -11.561,6.345 -22.28,14.174 -32.012,23.063 -3.796,3.467 -7.499,7.031 -11.047,10.75 -2.868,3.008 -2.755,7.772 0.253,10.64 3.008,2.868 7.771,2.755 10.64,-0.253 9.646,-10.118 20.538,-19.371 32.428,-26.852 5.48,-3.449 11.2,-6.565 17.173,-9.077 1.569,3.559 3.61,8.828 5.527,15.729 9.074,32.689 6.622,67.965 -1.332,100.608 -1.711,7.02 -3.688,13.979 -5.93,20.847 -0.023,0.071 -0.048,0.144 -0.071,0.216 -10.24,-10.834 -22.815,-19.68 -37.052,-26.047 -0.195,-0.087 -0.39,-0.174 -0.585,-0.26 -16.838,-7.432 -35.368,-11.141 -53.773,-10.125 z m -2.749,168.417 c -3.489,-0.302 -7.002,-0.56 -10.535,-0.788 -3.905,-0.268 -7.817,-0.465 -11.728,-0.624 l 59.02,-148.079 c 3.572,1.023 7.088,2.24 10.531,3.633 0.559,0.227 9.182,4.177 9.166,4.217 z"
             inkscape:connector-curvature="0" />
        </g>
      </g>
    </g>
    <path
       style="fill:#808080;fill-opacity:1;stroke-width:0.09045766"
       inkscape:connector-curvature="0"
       d="m 130.27558,228.96584 h -9.40761 v -2.89466 c -0.002,-1.99748 -1.62082,-3.61582 -3.61831,-3.6183 h -13.02591 c -1.99749,0.002 -3.61583,1.62082 -3.61831,3.6183 v 2.89466 h -9.407602 c -1.19891,0 -2.170981,0.97207 -2.170981,2.17098 v 16.10854 c 0.0041,0.91801 0.583029,1.73459 1.447328,2.04306 v 10.0712 c 0,1.19891 0.972071,2.17098 2.170981,2.17098 h 36.183084 c 1.19891,0 2.17098,-0.97207 2.17098,-2.17098 v -10.07048 c 0.8643,-0.30884 1.44308,-1.12577 1.44733,-2.04378 v -16.10854 c 0,-1.19891 -0.97207,-2.17098 -2.17098,-2.17098 z m -28.22282,-2.89466 c 0,-1.19891 0.97208,-2.17098 2.17099,-2.17098 h 13.02591 c 1.19891,0 2.17098,0.97207 2.17098,2.17098 v 2.89466 h -1.44732 v -2.89466 c 0,-0.39963 -0.32402,-0.72365 -0.72366,-0.72365 h -13.02591 c -0.39964,0 -0.72366,0.32402 -0.72366,0.72365 v 2.89466 h -1.44733 z m 14.47325,2.89466 h -11.57859 v -2.17098 h 11.57859 z m 13.02589,30.39378 c 0,0.39964 -0.32401,0.72365 -0.72365,0.72365 H 92.645166 c -0.399637,0 -0.723654,-0.32401 -0.723654,-0.72365 v -9.82243 l 15.920548,2.1957 v 1.83744 c 0,1.19891 0.97207,2.17098 2.17098,2.17098 h 1.44733 c 1.19891,0 2.17098,-0.97207 2.17098,-2.17098 v -1.83744 l 15.92055,-2.1957 z m -17.36788,-5.78929 c 0,0.39964 -0.32401,0.72365 -0.72365,0.72365 h -1.44733 c -0.39964,0 -0.72365,-0.32401 -0.72365,-0.72365 v -4.34198 c 0,-0.39964 0.32401,-0.72366 0.72365,-0.72366 h 1.44733 c 0.39964,0 0.72365,0.32402 0.72365,0.72366 z m 18.81521,-6.32497 c 2.7e-4,0.36077 -0.26501,0.66678 -0.62224,0.71728 l -0.2006,0.0275 -16.54494,2.28159 v -1.04345 c 0,-1.19891 -0.97207,-2.17098 -2.17098,-2.17098 h -1.44733 c -1.19891,0 -2.17098,0.97207 -2.17098,2.17098 v 1.04347 l -16.744908,-2.30917 c -0.357238,-0.0501 -0.623314,-0.35617 -0.622965,-0.71729 v -16.10853 c 0,-0.39964 0.324017,-0.72365 0.723654,-0.72365 h 39.077739 c 0.39964,0 0.72365,0.32401 0.72365,0.72365 z m 0,0"
       id="path1244" />
    <g
       style="fill:#808080;fill-opacity:1"
       transform="matrix(0.08018789,0,0,0.08018789,219.45557,221.50111)"
       id="g1266">
      <g
         style="fill:#808080;fill-opacity:1"
         id="g1264">
        <path
           style="fill:#808080;fill-opacity:1"
           inkscape:connector-curvature="0"
           id="path1246"
           d="M 511.005,279.646 C 506.408,233.408 485.751,189.817 452.837,156.902 424.709,128.775 390.281,110.7 354.055,102.663 V 77.255 c 14.796,-3.681 25.794,-17.074 25.794,-32.993 0,-18.748 -15.252,-34 -34,-34 h -72 c -18.748,0 -34,15.252 -34,34 0,15.918 10.998,29.311 25.793,32.993 v 25.479 c -36.115,8.071 -70.429,26.121 -98.477,54.169 -6.138,6.138 -11.798,12.577 -16.979,19.269 -0.251,-0.019 -0.502,-0.038 -0.758,-0.038 H 78.167 c -5.522,0 -10,4.477 -10,10 0,5.523 4.478,10 10,10 h 58.412 c -7.332,12.275 -13.244,25.166 -17.744,38.436 H 10 c -5.522,0 -10,4.477 -10,10 0,5.523 4.478,10 10,10 h 103.184 c -2.882,12.651 -4.536,25.526 -4.963,38.437 H 64 c -5.522,0 -10,4.477 -10,10 0,5.523 4.478,10 10,10 h 44.54 c 0.844,12.944 2.925,25.82 6.244,38.437 H 50 c -5.522,0 -10,4.477 -10,10 0,5.523 4.478,10 10,10 h 71.166 c 9.81,25.951 25.141,50.274 45.999,71.132 32.946,32.946 76.582,53.608 122.868,58.181 6.606,0.652 13.217,0.975 19.819,0.975 39.022,0 77.548,-11.293 110.238,-32.581 4.628,-3.014 5.937,-9.209 2.923,-13.837 -3.014,-4.628 -9.209,-5.937 -13.837,-2.923 -71.557,46.597 -167.39,36.522 -227.869,-23.957 -70.962,-70.962 -70.962,-186.425 0,-257.388 70.961,-70.961 186.424,-70.961 257.387,0 60.399,60.4 70.529,156.151 24.086,227.673 -3.008,4.632 -1.691,10.826 2.94,13.833 4.634,3.008 10.826,1.691 13.833,-2.941 24.814,-38.215 35.984,-84.37 31.452,-129.965 z M 259.849,44.263 c 0,-7.72 6.28,-14 14,-14 h 72 c 7.72,0 14,6.28 14,14 0,7.72 -6.28,14 -14,14 h -1.794 -68.413 -1.793 c -7.72,0 -14,-6.281 -14,-14 z m 25.793,55.033 V 78.263 h 48.413 V 99.26 c -16.076,-1.912 -32.34,-1.9 -48.413,0.036 z" />
        <path
           style="fill:#808080;fill-opacity:1"
           inkscape:connector-curvature="0"
           id="path1248"
           d="m 445.77,425.5 c -2.64,0 -5.21,1.07 -7.069,2.93 -1.87,1.86 -2.931,4.44 -2.931,7.07 0,2.63 1.061,5.21 2.931,7.07 1.859,1.87 4.43,2.93 7.069,2.93 2.63,0 5.2,-1.06 7.07,-2.93 1.86,-1.86 2.93,-4.44 2.93,-7.07 0,-2.63 -1.069,-5.21 -2.93,-7.07 -1.87,-1.86 -4.441,-2.93 -7.07,-2.93 z" />
        <path
           style="fill:#808080;fill-opacity:1"
           inkscape:connector-curvature="0"
           id="path1250"
           d="m 310.001,144.609 c -85.538,0 -155.129,69.59 -155.129,155.129 0,85.539 69.591,155.129 155.129,155.129 85.538,0 155.129,-69.59 155.129,-155.129 0,-85.539 -69.591,-155.129 -155.129,-155.129 z m 0,290.258 c -74.511,0 -135.129,-60.619 -135.129,-135.129 0,-74.51 60.618,-135.129 135.129,-135.129 74.511,0 135.129,60.619 135.129,135.129 0,74.51 -60.618,135.129 -135.129,135.129 z" />
        <path
           style="fill:#808080;fill-opacity:1"
           inkscape:connector-curvature="0"
           id="path1252"
           d="m 373.257,222.34 -49.53,49.529 c -4.142,-2.048 -8.801,-3.205 -13.726,-3.205 -4.926,0 -9.584,1.157 -13.726,3.205 l -22.167,-22.167 c -3.906,-3.905 -10.236,-3.905 -14.143,0 -3.905,3.905 -3.905,10.237 0,14.142 l 22.167,22.167 c -2.049,4.142 -3.205,8.801 -3.205,13.726 0,17.134 13.939,31.074 31.074,31.074 17.135,0 31.074,-13.94 31.074,-31.074 0,-4.925 -1.157,-9.584 -3.205,-13.726 l 48.076,-48.076 v 0 l 1.453,-1.453 c 3.905,-3.905 3.905,-10.237 0,-14.142 -3.905,-3.905 -10.235,-3.905 -14.142,0 z m -63.256,88.472 c -6.106,0 -11.074,-4.968 -11.074,-11.074 0,-6.106 4.968,-11.074 11.074,-11.074 6.106,0 11.074,4.968 11.074,11.074 0,6.106 -4.968,11.074 -11.074,11.074 z" />
        <path
           style="fill:#808080;fill-opacity:1"
           inkscape:connector-curvature="0"
           id="path1254"
           d="m 416.92,289.86 h -9.265 c -5.522,0 -10,4.477 -10,10 0,5.523 4.478,10 10,10 h 9.265 c 5.522,0 10,-4.477 10,-10 0,-5.523 -4.478,-10 -10,-10 z" />
        <path
           style="fill:#808080;fill-opacity:1"
           inkscape:connector-curvature="0"
           id="path1256"
           d="m 212.346,289.616 h -9.264 c -5.522,0 -10,4.477 -10,10 0,5.523 4.478,10 10,10 h 9.264 c 5.522,0 10,-4.477 10,-10 0,-5.523 -4.478,-10 -10,-10 z" />
        <path
           style="fill:#808080;fill-opacity:1"
           inkscape:connector-curvature="0"
           id="path1258"
           d="m 310.123,212.083 c 5.522,0 10,-4.477 10,-10 v -9.264 c 0,-5.523 -4.478,-10 -10,-10 -5.522,0 -10,4.477 -10,10 v 9.264 c 0,5.523 4.478,10 10,10 z" />
        <path
           style="fill:#808080;fill-opacity:1"
           inkscape:connector-curvature="0"
           id="path1260"
           d="m 309.879,387.393 c -5.522,0 -10,4.477 -10,10 v 9.264 c 0,5.523 4.478,10 10,10 5.522,0 10,-4.477 10,-10 v -9.264 c 0,-5.523 -4.478,-10 -10,-10 z" />
        <path
           style="fill:#808080;fill-opacity:1"
           inkscape:connector-curvature="0"
           id="path1262"
           d="m 10,351.44 c -2.63,0 -5.21,1.07 -7.07,2.93 -1.86,1.86 -2.93,4.44 -2.93,7.07 0,2.64 1.069,5.21 2.93,7.07 1.861,1.86 4.44,2.93 7.07,2.93 2.63,0 5.21,-1.07 7.069,-2.93 1.86,-1.86 2.931,-4.44 2.931,-7.07 0,-2.63 -1.07,-5.21 -2.931,-7.07 C 15.21,352.51 12.63,351.44 10,351.44 Z" />
      </g>
    </g>
    <text
       id="text929"
       y="248.19879"
       x="21.720009"
       style="font-style:normal;font-weight:normal;font-size:8.8194437px;line-height:1.25;font-family:sans-serif;letter-spacing:0px;word-spacing:0px;fill:#000000;fill-opacity:1;stroke:none;stroke-width:0.26458332"
       xml:space="preserve"><tspan
         style="font-size:21.16666603px;stroke-width:0.26458332"
         y="248.19879"
         x="21.720009"
         id="tspan927"
         sodipodi:role="line">x,xxx</tspan></text>
    <text
       id="text933"
       y="189.99042"
       x="154.01167"
       style="font-style:normal;font-weight:normal;font-size:8.8194437px;line-height:1.25;font-family:sans-serif;letter-spacing:0px;word-spacing:0px;fill:#000000;fill-opacity:1;stroke:none;stroke-width:0.26458332"
       xml:space="preserve"><tspan
         style="font-size:21.16666603px;stroke-width:0.26458332"
         y="189.99042"
         x="154.01167"
         id="tspan931"
         sodipodi:role="line">x,xxx</tspan></text>
    <text
       xml:space="preserve"
       style="font-style:normal;font-weight:normal;font-size:8.8194437px;line-height:1.25;font-family:sans-serif;letter-spacing:0px;word-spacing:0px;fill:#000000;fill-opacity:1;stroke:none;stroke-width:0.26458332"
       x="154.01167"
       y="248.19879"
       id="text937"><tspan
         sodipodi:role="line"
         id="tspan935"
         x="154.01167"
         y="248.19879"
         style="font-size:21.16666603px;stroke-width:0.26458332">x,xxx</tspan></text>
    <path
       inkscape:connector-curvature="0"
       id="path939"
       d="M 14.502968,215.04182 H 270.70605"
       style="fill:#ffffff;stroke:#fcfcfc;stroke-width:0.8188886;stroke-linecap:butt;stroke-linejoin:miter;stroke-miterlimit:4;stroke-dasharray:none;stroke-opacity:1" />
  </g>
  <g
     inkscape:groupmode="layer"
     id="layer1"
     inkscape:label="top">
    <rect
       style="display:inline;fill:#c7c7c7;fill-opacity:1;stroke:none;stroke-width:0.82480109;stroke-linejoin:round;stroke-miterlimit:4;stroke-dasharray:none;stroke-opacity:1"
       id="rect1234"
       width="285.6889"
       height="23.8125"
       x="0.34578672"
       y="28.568756"
       ry="0" />
    <path
       style="display:inline;fill:none;stroke:#fff7f7;stroke-width:0.52633303;stroke-linecap:butt;stroke-linejoin:miter;stroke-miterlimit:4;stroke-dasharray:none;stroke-opacity:1"
       d="m 71.742673,28.834821 v 23.55815"
       id="path1248-5"
       inkscape:connector-curvature="0" />
    <path
       inkscape:connector-curvature="0"
       id="path1251"
       d="m 147.41354,28.834821 v 23.55815"
       style="display:inline;fill:none;stroke:#fff7f7;stroke-width:0.52633303;stroke-linecap:butt;stroke-linejoin:miter;stroke-miterlimit:4;stroke-dasharray:none;stroke-opacity:1" />
    <path
       style="display:inline;fill:none;stroke:#fff7f7;stroke-width:0.52633303;stroke-linecap:butt;stroke-linejoin:miter;stroke-miterlimit:4;stroke-dasharray:none;stroke-opacity:1"
       d="m 147.41354,28.834821 v 23.55815"
       id="path1254-2"
       inkscape:connector-curvature="0" />
    <path
       inkscape:connector-curvature="0"
       id="path1256-4"
       d="m 210.91358,28.834821 v 23.55815"
       style="display:inline;fill:none;stroke:#fff7f7;stroke-width:0.52633303;stroke-linecap:butt;stroke-linejoin:miter;stroke-miterlimit:4;stroke-dasharray:none;stroke-opacity:1" />
    <text
       id="text4756"
       y="44.203705"
       x="23.315865"
       style="font-style:normal;font-weight:normal;font-size:10.58333302px;line-height:1.25;font-family:sans-serif;letter-spacing:0px;word-spacing:0px;display:inline;fill:#000000;fill-opacity:1;stroke:none;stroke-width:0.26458332"
       xml:space="preserve"><tspan
         style="stroke-width:0.26458332"
         y="44.203705"
         x="23.315865"
         id="tspan4754"
         sodipodi:role="line">HOME</tspan></text>
    <text
       id="text4762"
       y="44.203705"
       x="86.007469"
       style="font-style:normal;font-weight:normal;font-size:10.58333302px;line-height:1.25;font-family:sans-serif;letter-spacing:0px;word-spacing:0px;display:inline;fill:#000000;fill-opacity:1;stroke:none;stroke-width:0.26458332"
       xml:space="preserve"><tspan
         style="stroke-width:0.26458332"
         y="44.203705"
         x="86.007469"
         id="tspan4760"
         sodipodi:role="line">APPROVE</tspan></text>
    <text
       id="text4768"
       y="44.203705"
       x="161.57484"
       style="font-style:normal;font-weight:normal;font-size:10.58333302px;line-height:1.25;font-family:sans-serif;letter-spacing:0px;word-spacing:0px;display:inline;fill:#000000;fill-opacity:1;stroke:none;stroke-width:0.26458332"
       xml:space="preserve"><tspan
         style="stroke-width:0.26458332"
         y="44.203705"
         x="161.57484"
         id="tspan4766"
         sodipodi:role="line">LEAVE</tspan></text>
    <text
       id="text4774"
       y="44.203705"
       x="221.57768"
       style="font-style:normal;font-weight:normal;font-size:10.58333302px;line-height:1.25;font-family:sans-serif;letter-spacing:0px;word-spacing:0px;display:inline;fill:#000000;fill-opacity:1;stroke:none;stroke-width:0.26458332"
       xml:space="preserve"><tspan
         style="stroke-width:0.26458332"
         y="44.203705"
         x="221.57768"
         id="tspan4772"
         sodipodi:role="line">REPORT</tspan></text>
    <path
       style="display:inline;fill:none;stroke:#000000;stroke-width:0.52916676;stroke-linecap:butt;stroke-linejoin:miter;stroke-miterlimit:4;stroke-dasharray:none;stroke-opacity:1"
       d="M 0.30517316,28.568541 H 286.05517"
       id="path3768"
       inkscape:connector-curvature="0"
       sodipodi:nodetypes="cc" />
    <g
       style="display:inline"
       transform="translate(-253.69492,-0.66768993)"
       id="g6012">
      <rect
         id="rect6006"
         width="21.166666"
         height="5.2916665"
         x="259.29166"
         y="5.291667"
         style="stroke-width:0.26458332" />
      <rect
         id="rect6008"
         width="21.166666"
         height="5.2916665"
         x="259.29166"
         y="11.90625"
         style="stroke-width:0.26458332" />
      <rect
         id="rect6010"
         width="21.166666"
         height="5.2916665"
         x="259.29166"
         y="18.520834"
         style="stroke-width:0.26458332" />
    </g>
    <text
       xml:space="preserve"
       style="font-style:normal;font-weight:normal;font-size:8.8194437px;line-height:1.25;font-family:sans-serif;letter-spacing:0px;word-spacing:0px;fill:#000000;fill-opacity:1;stroke:none;stroke-width:0.26458332"
       x="108.93866"
       y="17.386906"
       id="text1048"><tspan
         sodipodi:role="line"
         id="tspan1046"
         x="108.93866"
         y="17.386906"
         style="stroke-width:0.26458332">REPORT_HOME</tspan></text>
  </g>
</svg>
